<?xml version="1.0" encoding="UTF-8"?>
<svg id="Layer_1" xmlns="http://www.w3.org/2000/svg" version="1.1" viewBox="0 0 169.28 15.71">
  <!-- Generator: Adobe Illustrator 29.8.2, SVG Export Plug-In . SVG Version: 2.1.1 Build 3)  -->
  <defs>
    <style>
      .st0 {
        fill: #fff;
      }
    </style>
  </defs>
  <g>
    <path class="st0" d="M4.26,15.08c-.15-.32-.29-.64-.42-.96-.06-.16-.09-.32-.13-.49-.02-.07-.03-.14-.06-.22h2.71c-.68-.48-2.51-2.04-2.12-4.69.13-.9.43-1.06.43-1.06-.02.51-.04,1.95,1.26,3.18.8.76,1.23,1.22,1.57,1.8.04-.11.05-.54-1.11-2.06-1.53-2-2.63-4.79-.15-7.05,0,0-.38,1.59.66,3.63.74,1.46,1.53,3.38,1.21,5.52v.06c.19-.36.5-1.07.56-1.89.26-1.52-1.41-3.91-1.64-4.57-.82-2.28-.54-4.53,1.07-5.76C3.9.73.56,4.2.56,8.45c0,2.85,1.51,5.35,3.76,6.75-.02-.04-.05-.08-.06-.12Z"/>
    <path class="st0" d="M9.08.53c-.66,1.05-1.39,3.14.43,6.09,1.62,2.62.41,4.91-.71,6.07h0c.51-.33,3.79-2.59,1.86-5.35-2.92-4.18-1.67-5.51-1.67-5.51.42,1.21.54,1.77,2.7,4.71,2.77,3.76-.36,6.44-1.04,6.85h2.68c0,.05,0,.08-.01.11-.12.46-.29.9-.48,1.32-.06.12-.11.24-.17.36h0c2.26-1.4,3.77-3.9,3.77-6.76,0-4.16-3.25-7.59-7.36-7.89Z"/>
  </g>
  <path class="st0" d="M27.58,5.42v-1.02h-3.27v1.02h.31c.31.02.54.08.67.21.12.12.18.31.18.57v2.05l-3.22-3.74-.1-.11h-2.64v1.03h.7c.08,0,.14.01.2.04.04.02.09.06.17.13v3.92c0,.27-.06.46-.19.58-.13.12-.36.19-.67.2h-.31v1.03h3.44v-1.02h-.31c-.31-.02-.54-.08-.67-.21-.12-.11-.18-.31-.18-.57v-2.64l3.72,4.33.1.11h1.07v-5.13c0-.28.05-.48.16-.6.1-.11.27-.17.52-.18h.32ZM56.18,9.26h-1.08v.32c0,.21-.02.33-.04.38-.07-.19-.18-.51-.18-.51-.21-.64-.5-1.14-.88-1.47-.02-.01-.03-.02-.05-.04.25-.07.47-.17.66-.29.52-.33.79-.82.79-1.4s-.27-1.07-.79-1.4c-.48-.3-1.14-.46-1.96-.46h-4.1v1.03h.87c.1,0,.16,0,.19.02v4.85s-.09.02-.19.02h-1.31c-.08,0-.11-.02-.12-.02,0,0-.05-.03-.1-.15l-2.62-5.69-.09-.19h-.96l-.09.19-2.48,5.37c-.08.17-.18.3-.28.38-.09.07-.19.1-.32.1h-.09l.03-.47.07-1.2.02-.34h-1.05l-.04.27c-.1.66-.28,1.12-.54,1.37-.24.24-.64.36-1.19.36h-.94l3.62-5,.06-.08v-.82h-5.81l-.02.3-.08,1.1-.07,1.1-.02.34h1.05l.04-.27c.08-.49.24-.88.48-1.16.22-.25.47-.38.76-.38h1.09l-3.52,4.87h-.42c-.08,0-.11-.02-.12-.02,0,0-.05-.03-.1-.15l-2.62-5.69-.09-.19h-.96l-.09.19-2.48,5.37c-.08.17-.17.3-.28.38-.09.07-.19.1-.32.1h-.46v1.03h3.25v-1.03h-.59c-.15,0-.33-.02-.39-.13-.05-.1-.03-.28.08-.51,0,0,.09-.2.16-.35h2.21l.43.97c-.07,0-.18.02-.34.02h-.53v1.03h12.59v-1.03h-.59c-.15,0-.34-.02-.39-.13-.05-.1-.03-.28.08-.51,0,0,.09-.2.16-.35h2.21l.43.97c-.07,0-.18.02-.34.02h-.53v1.03h7.75v-1.03h-.87v-2.01h.05c.28,0,.48.08.61.24.11.13.27.43.39,1.1.06.3.13.57.21.8h0v.02l.13.3c.1.22.28.39.54.51.23.11.5.16.79.16.52,0,.94-.17,1.25-.51.3-.33.45-.78.45-1.33v-.32l.02.02ZM29.99,8.22l.61-1.33.59,1.33h-1.21,0ZM43.61,8.22l.61-1.33.59,1.33h-1.21,0ZM52.93,7.02c-.23.17-.58.25-1.06.25h-.13v-1.71c0-.06,0-.1,0-.12.03,0,.08-.02.18-.02h.19c.38,0,.67.08.85.24.17.15.26.38.26.69s-.09.51-.3.66h0ZM62.14,8.57c-.1.66-.29,1.11-.57,1.36s-.74.37-1.36.37h-.71c-.09,0-.15,0-.18-.02,0-.02,0-.06,0-.12v-1.87c.3.01.52.08.65.2.15.14.25.43.3.83l.03.28h1.02v-3.58h-1.02l-.03.28c-.04.36-.14.62-.28.75-.13.11-.36.18-.67.19v-1.7c0-.06,0-.1,0-.12.03,0,.08-.02.18-.02h.75c.54,0,.94.11,1.17.32.24.22.41.63.5,1.21l.04.27h1.05l-.02-.34-.08-1.1-.07-1.1-.02-.3h-6.72v1.03h.87c.1,0,.16,0,.19.02v4.85s-.09.02-.19.02h-.87v1.03h6.93l.02-.3.08-1.2.07-1.2.02-.34h-1.05l-.04.27v.03ZM77.36,8.57c-.1.66-.29,1.11-.57,1.36s-.74.37-1.36.37h-.71c-.09,0-.15,0-.18-.02,0-.02-.01-.06-.01-.12v-1.87c.3.01.52.08.65.2.15.14.25.43.3.83l.03.28h1.02v-3.58h-1.02l-.03.28c-.04.36-.14.62-.28.75-.13.11-.36.18-.67.19v-1.7c0-.06,0-.1.01-.12.03,0,.08-.02.18-.02h.75c.54,0,.94.11,1.17.32.24.22.41.63.5,1.21l.04.27h1.05l-.02-.34-.08-1.1-.07-1.1-.02-.3h-9.84v1.02h.31c.31.02.54.08.67.21.12.12.19.31.19.57v2.05l-3.22-3.74-.1-.11h-2.64v1.03h.7c.08,0,.14.01.2.04.04.02.09.06.17.13v3.92c0,.27-.06.46-.19.58-.13.12-.36.19-.67.2h-.31v1.03h3.44v-1.02h-.31c-.31-.02-.54-.08-.67-.21-.12-.11-.18-.31-.18-.57v-2.64l3.72,4.33.1.11h1.07v-5.13c0-.28.05-.48.16-.6.1-.11.27-.17.52-.18h1.03c.1,0,.16,0,.19.02v4.85s-.09.02-.19.02h-.87v1.03h6.93l.02-.3.08-1.2.07-1.2.02-.34h-1.05l-.04.27v.04ZM87.64,7.83c-.1-.05-.21-.1-.33-.14.01,0,.02-.01.04-.02.82-.43.99-1.06.99-1.52,0-.56-.25-1.02-.73-1.33-.45-.28-1.05-.42-1.83-.42h-4.44v1.03h.87c.1,0,.16,0,.19.02v4.85s-.09.02-.19.02h-.87v1.03h4.53c.85,0,1.53-.17,2.04-.51.55-.36.84-.87.84-1.49s-.37-1.16-1.11-1.52h0ZM84.54,5.53c0-.06,0-.1.01-.12.03,0,.08-.02.18-.02h.18c.64,0,.89.12.98.2.17.14.21.47.21.72s-.04.58-.21.72c-.09.07-.33.19-.98.19h-.37v-1.7h0ZM86.24,10.11c-.13.11-.43.23-1.09.23h-.43c-.09,0-.15,0-.18-.02,0-.02-.01-.06-.01-.12v-1.94h.48c.72,0,1.05.13,1.19.24.18.14.28.41.28.8s-.09.66-.26.8h.02ZM99.28,7.83c-.1-.05-.21-.1-.33-.14.01,0,.02-.01.04-.02.82-.43.99-1.06.99-1.52,0-.56-.25-1.02-.73-1.33-.45-.28-1.05-.42-1.83-.42h-8.69v1.03h.87c.1,0,.16,0,.19.02v4.85s-.09.02-.19.02h-.87v1.03h8.78c.84,0,1.53-.17,2.04-.51.55-.36.84-.87.84-1.49s-.37-1.16-1.11-1.52h0ZM96.19,5.53v-.12s.08-.02.18-.02h.18c.64,0,.89.12.98.2.17.14.21.47.21.72s-.04.58-.21.72c-.09.07-.33.19-.98.19h-.37v-1.7h.01ZM94.05,10.28v.02s-.09.02-.19.02h-1.74c-.1,0-.16,0-.19-.02v-4.85s.09-.02.19-.02h1.74c.1,0,.16,0,.19.02v4.83ZM97.88,10.11c-.13.11-.43.23-1.09.23h-.43c-.09,0-.15,0-.17-.02,0-.02-.01-.06-.01-.12v-1.94h.48c.72,0,1.05.13,1.19.24.18.14.28.41.28.8s-.09.66-.26.8h0ZM113.28,8.57c-.1.66-.29,1.11-.57,1.36s-.74.37-1.36.37h-.71c-.09,0-.15,0-.18-.02,0-.02-.01-.06-.01-.12v-1.87c.3.01.52.08.65.2.15.14.25.43.3.83l.03.28h1.02v-3.58h-1.02l-.03.28c-.04.36-.14.62-.28.75-.13.11-.36.18-.67.19v-1.7c0-.06,0-.1.01-.12.03,0,.08-.02.18-.02h.75c.54,0,.94.11,1.17.32.24.22.41.63.5,1.21l.04.27h1.05l-.02-.34-.08-1.1-.07-1.1-.02-.3h-6.72v1.03h.87c.1,0,.16,0,.19.02v4.84s-.09.02-.19.02h-.84l.03-.47.07-1.2.02-.34h-1.05l-.04.27c-.1.66-.29,1.11-.57,1.36s-.74.37-1.36.37h-.57c-.1,0-.15,0-.18-.02v-4.84s.09-.02.19-.02h.87v-1.03h-4.26v1.03h.87c.1,0,.16,0,.19.02v4.85s-.09.02-.19.02h-.87v1.03h6.79l.02-.3.02-.29v.59h6.93l.02-.3.08-1.2.07-1.2.02-.34h-1.05l-.04.27v.04ZM123.37,8.76c-.08.51-.28.9-.61,1.19-.32.29-.72.43-1.2.43-.53,0-.92-.19-1.18-.58-.29-.42-.43-1.09-.43-1.97s.14-1.53.43-1.97c.26-.4.62-.59,1.12-.59.43,0,.78.16,1.08.47.32.34.54.82.66,1.44l.05.26h1.03l-.02-.34-.13-2.55-.02-.3h-.86l-.09.16-.17.3c-.47-.3-1.04-.46-1.7-.46-1.05,0-1.94.35-2.65,1.03-.71.69-1.06,1.56-1.06,2.59s.36,1.9,1.06,2.59c.7.68,1.59,1.03,2.65,1.03.82,0,1.53-.24,2.08-.71.56-.47.9-1.12,1.01-1.91l.05-.37h-1.06l-.04.27h0ZM131.41,5.27c-.73-.68-1.66-1.03-2.77-1.03s-2.03.35-2.76,1.03c-.74.69-1.12,1.56-1.12,2.59s.38,1.91,1.12,2.59c.74.68,1.67,1.02,2.76,1.02s2.03-.34,2.77-1.02c.74-.69,1.12-1.56,1.12-2.59s-.38-1.91-1.12-2.59ZM129.79,9.88c-.24.37-.62.55-1.15.55s-.91-.18-1.14-.55c-.26-.41-.4-1.09-.4-2.01s.14-1.6.4-2.01c.24-.37.61-.55,1.14-.55s.91.18,1.15.55c.27.41.4,1.09.4,2.01s-.13,1.6-.4,2.01ZM139.64,8.3h-1.05l-.04.27c-.1.66-.29,1.11-.57,1.36-.28.25-.74.37-1.36.37h-.56c-.1,0-.15,0-.18-.02,0-.02,0-.06,0-.12v-4.73s.09-.02.19-.02h.87v-1.03h-4.26v1.03h.87c.1,0,.16,0,.19.02v4.85s-.09.02-.19.02h-.87v1.03h6.79l.02-.3.08-1.2.07-1.2.02-.34h-.01ZM152.43,8.57c-.1.66-.29,1.11-.57,1.36-.28.25-.74.37-1.36.37h-.71c-.09,0-.15,0-.18-.02,0-.02,0-.06,0-.12v-1.87c.3.01.52.08.65.2.15.14.25.43.3.83l.03.28h1.02v-3.58h-1.02l-.03.28c-.04.36-.14.62-.28.75-.13.11-.36.18-.67.19v-1.7c0-.06,0-.1,0-.12.03,0,.08-.02.18-.02h.75c.54,0,.94.11,1.17.32.24.22.41.63.5,1.21l.04.27h1.05l-.02-.34-.08-1.1-.07-1.1-.02-.3h-6.72v1.03h.87c.1,0,.16,0,.19.02v4.85s-.09.02-.19.02h-.84l.03-.47.07-1.2.02-.34h-1.05l-.04.27c-.1.66-.29,1.11-.57,1.36-.28.25-.74.37-1.36.37h-.56c-.1,0-.15,0-.18-.02,0-.02,0-.06,0-.12v-4.73s.09-.02.19-.02h.87v-1.03h-4.26v1.03h.87c.1,0,.16,0,.19.02v4.85s-.09.02-.19.02h-.87v1.03h6.79l.02-.3.02-.29v.59h6.93l.02-.3.08-1.2.07-1.2.02-.34h-1.05l-.04.27v.04ZM161.8,7.8h-3.94v1.03h.87c.1,0,.16,0,.19.02v.45c0,.17-.02.33-.06.48-.04.16-.09.24-.12.27-.21.25-.54.37-1.01.37-.57,0-.96-.17-1.2-.53-.26-.39-.39-1.09-.39-2.06,0-.92.15-1.6.43-2.02.26-.39.66-.58,1.22-.58.43,0,.8.17,1.13.51.34.35.57.83.67,1.43l.05.27h1.04l-.02-.34-.13-2.55-.02-.3h-.87l-.09.16-.19.34c-.52-.33-1.15-.5-1.88-.5-1.09,0-1.98.34-2.65,1-.68.66-1.02,1.55-1.02,2.62s.36,1.96,1.07,2.62c.7.66,1.64.99,2.77.99h0c.72,0,1.39-.28,2.01-.84l.37.67.09.17h.87v-2.64h.81v-1.03h0ZM167.69,8.3l-.04.27c-.1.66-.29,1.11-.57,1.36-.28.25-.74.37-1.36.37h-.71c-.09,0-.15,0-.18-.02,0-.02,0-.06,0-.12v-1.87c.3.01.52.08.65.2.15.14.25.43.3.83l.03.28h1.02v-3.58h-1.02l-.03.28c-.04.36-.14.62-.28.75-.13.11-.36.18-.67.19v-1.7c0-.06,0-.1,0-.12.03,0,.08-.02.18-.02h.75c.54,0,.94.11,1.17.32.24.22.41.63.5,1.21l.04.27h1.05l-.02-.34-.08-1.1-.07-1.1-.02-.3h-6.72v1.03h.87c.1,0,.16,0,.19.02v4.84s-.09.02-.19.02h-.87v1.03h6.93l.02-.3.08-1.2.07-1.2.02-.34h-1.05v.04Z"/>
</svg>