<?xml version="1.0" encoding="UTF-8"?>
<svg id="Layer_1" xmlns="http://www.w3.org/2000/svg" version="1.1" viewBox="0 0 48 48">
  <!-- Generator: Adobe Illustrator 29.8.2, SVG Export Plug-In . SVG Version: 2.1.1 Build 3)  -->
  <defs>
    <style>
      .st0 {
        fill: #fff;
      }
    </style>
  </defs>
  <path class="st0" d="M11.38,45.48c-.45-.95-.86-1.9-1.25-2.86-.18-.48-.27-.95-.39-1.46-.06-.21-.09-.42-.18-.65h8.06c-2.02-1.43-7.47-6.07-6.31-13.95.39-2.68,1.28-3.15,1.28-3.15-.06,1.52-.12,5.8,3.75,9.46,2.38,2.26,3.66,3.63,4.67,5.36.12-.33.15-1.61-3.3-6.13-4.55-5.95-7.83-14.25-.45-20.98,0,0-1.13,4.73,1.96,10.8,2.2,4.34,4.55,10.06,3.6,16.42v.18c.57-1.07,1.49-3.18,1.67-5.62.77-4.52-4.2-11.63-4.88-13.6-2.44-6.78-1.61-13.48,3.18-17.14C10.31,2.79.38,13.11.38,25.76c0,8.48,4.49,15.92,11.19,20.08-.06-.12-.15-.24-.18-.36Z"/>
  <path class="st0" d="M25.73,2.19c-1.96,3.12-4.14,9.34,1.28,18.12,4.82,7.8,1.22,14.61-2.11,18.06h0c1.52-.98,11.28-7.71,5.53-15.92-8.69-12.44-4.97-16.39-4.97-16.39,1.25,3.6,1.61,5.27,8.03,14.01,8.24,11.19-1.07,19.16-3.09,20.38h7.97c0,.15,0,.24-.03.33-.36,1.37-.86,2.68-1.43,3.93-.18.36-.33.71-.51,1.07h0c6.72-4.17,11.22-11.6,11.22-20.11,0-12.38-9.67-22.58-21.9-23.48Z"/>
</svg>