<?xml version="1.0" encoding="UTF-8"?>
<svg id="Layer_1" xmlns="http://www.w3.org/2000/svg" version="1.1" viewBox="0 0 86.41 15.95">
  <!-- Generator: Adobe Illustrator 29.8.2, SVG Export Plug-In . SVG Version: 2.1.1 Build 3)  -->
  <defs>
    <style>
      .st0 {
        fill: #094868;
      }
    </style>
  </defs>
  <g>
    <path class="st0" d="M4.54,15.19c-.15-.32-.29-.64-.42-.96-.06-.16-.09-.32-.13-.49-.02-.07-.03-.14-.06-.22h2.71c-.68-.48-2.51-2.04-2.12-4.69.13-.9.43-1.06.43-1.06-.02.51-.04,1.95,1.26,3.18.8.76,1.23,1.22,1.57,1.8.04-.11.05-.54-1.11-2.06-1.53-2-2.63-4.79-.15-7.05,0,0-.38,1.59.66,3.63.74,1.46,1.53,3.38,1.21,5.52v.06c.19-.36.5-1.07.56-1.89.26-1.52-1.41-3.91-1.64-4.57-.82-2.28-.54-4.53,1.07-5.76C4.18.84.84,4.31.84,8.56c0,2.85,1.51,5.35,3.76,6.75-.02-.04-.05-.08-.06-.12Z"/>
    <path class="st0" d="M9.36.64c-.66,1.05-1.39,3.14.43,6.09,1.62,2.62.41,4.91-.71,6.07h0c.51-.33,3.79-2.59,1.86-5.35-2.92-4.18-1.67-5.51-1.67-5.51.42,1.21.54,1.77,2.7,4.71,2.77,3.76-.36,6.44-1.04,6.85h2.68c0,.05,0,.08-.01.11-.12.46-.29.9-.48,1.32-.06.12-.11.24-.17.36h0c2.26-1.4,3.77-3.9,3.77-6.76,0-4.16-3.25-7.59-7.36-7.89Z"/>
  </g>
  <path class="st0" d="M79.93,12.51c-.05.3-.14.51-.26.61-.12.11-.32.17-.62.17h-.3c-.08,0-.11-.02-.11-.02,0,0-.02-.02-.02-.09v-.85h0c.18,0,.29.04.36.1s.12.19.14.39v.08h.35v-1.43h-.34v.08c-.03.18-.08.29-.15.35-.06.06-.18.1-.36.1h0v-.78c0-.07.02-.09.02-.09,0,0,.04-.02.11-.02h.32c.26,0,.43.06.54.15.11.09.19.27.23.55v.07h.36l-.04-.56-.04-.55h-2.77v.34h.32c.07,0,.12.01.12.02,0,0,.01,0,.01.05v2.05s0,.04-.01.05c0,0-.05.02-.12.02h-.32v.34h2.86l.04-.59.04-.6h-.35v.07h-.01ZM74.22,12.56h.32c.07,0,.11.01.12.02,0,0,.01,0,.01.05v.19c0,.08,0,.15-.03.22-.02.07-.04.11-.06.14-.1.11-.24.17-.47.17-.27,0-.45-.09-.55-.25-.11-.17-.18-.47-.18-.91,0-.41.07-.71.19-.89s.3-.27.56-.27c.2,0,.36.07.52.23.15.16.25.37.3.64v.07h.36l-.07-1.26h-.29l-.13.24c-.22-.16-.5-.24-.82-.24-.45,0-.82.14-1.1.41-.28.27-.42.64-.42,1.08s.15.81.44,1.08c.29.27.68.41,1.15.41h0c.32,0,.61-.13.87-.39l.21.39h.29v-1.11s.02-.01.07-.01h.27v-.34h-1.58v.34h.02,0ZM70.37,12.51c-.05.3-.14.51-.26.61-.12.11-.32.17-.62.17h-.3c-.07,0-.11-.02-.11-.02,0,0-.02-.02-.02-.09v-.85h0c.18,0,.29.04.36.1s.12.19.14.39v.08h.35v-1.43h-.34v.08c-.03.18-.08.29-.15.35-.06.06-.18.1-.36.1h0v-.78c0-.07.02-.09.02-.09,0,0,.04-.02.11-.02h.32c.26,0,.43.06.54.15.11.09.19.27.23.55v.07h.36l-.04-.56-.04-.55h-2.77v.34h.32c.07,0,.12.01.12.02v2.1s.01.04,0,.05c0,0-.05.02-.12.02h-.32v.34h2.86l.04-.59.04-.6h-.35v.07h-.01ZM65.86,12.51c-.05.3-.14.51-.26.61-.12.11-.32.17-.62.17h-.24c-.07,0-.11-.02-.11-.02,0,0-.02-.02-.02-.09v-2.01s0-.04.01-.05c0,0,.05-.02.12-.02h.32v-.34h-1.72v.34h.32c.07,0,.12.01.12.02v2.15s-.05.02-.12.02h-.32v.34h2.8l.04-.59.04-.6h-.35v.07s-.01,0-.01,0ZM61.38,12.51c-.05.3-.14.51-.26.61-.12.11-.32.17-.62.17h-.24c-.08,0-.11-.02-.11-.02,0,0-.02-.02-.02-.09v-2.06s.05-.02.12-.02h.32v-.34h-1.72v.34h.32c.07,0,.12.01.12.02v2.15s-.05.02-.12.02h-.32v.34h2.8l.04-.59.04-.6h-.35v.07h0ZM56.27,12.21c0,.41-.06.7-.18.87-.11.17-.28.26-.53.26s-.42-.09-.53-.26-.18-.47-.18-.89.07-.71.18-.89c.11-.17.28-.26.53-.26s.42.09.53.26.18.46.18.87v.03h0ZM55.56,10.7c-.45,0-.84.14-1.15.42s-.46.65-.46,1.07.16.79.46,1.07c.31.28.69.42,1.15.42h0c.45,0,.84-.14,1.14-.42.31-.28.46-.65.46-1.07s-.16-.79-.46-1.07-.69-.43-1.15-.42h.01ZM51.83,12.59c-.04.23-.13.41-.28.54-.15.13-.32.19-.55.2-.25,0-.42-.09-.55-.27-.12-.18-.19-.47-.19-.87s.07-.68.19-.87.28-.27.52-.28c.2,0,.36.07.5.22.14.15.24.36.3.64v.07h.36l-.07-1.26h-.29l-.12.22c-.2-.15-.46-.22-.74-.22-.43,0-.81.14-1.1.43-.29.28-.44.65-.44,1.07s.15.79.44,1.07c.29.28.66.43,1.1.43h0c.33,0,.62-.1.85-.29s.37-.46.41-.78v-.1h-.33v.07h0v-.02h0ZM44.46,12.51c-.05.3-.14.51-.26.61-.12.11-.32.17-.62.17h-.3c-.07,0-.11-.02-.11-.02,0,0-.02-.02-.02-.09v-.85h0c.18,0,.29.04.36.1s.12.19.14.39v.08h.35v-1.43h-.34v.08c-.03.18-.08.29-.15.35-.06.06-.18.1-.36.1h0v-.78c0-.07.02-.09.02-.09,0,0,.04-.02.11-.02h.32c.26,0,.43.06.54.15.11.09.19.27.23.55v.07h.36l-.04-.56-.04-.55h-2.77v.34h.32c.07,0,.12.01.12.02v2.15s-.05.02-.12.02h-.32v.34h2.86l.04-.59.04-.6h-.35v.07h-.01ZM39.95,12.51c-.05.3-.14.51-.26.61-.12.11-.32.17-.62.17h-.24c-.07,0-.11-.02-.11-.02,0,0-.02-.02-.02-.09v-2.06s.05-.02.12-.02h.32v-.34h-1.72v.34h.32c.07,0,.12.01.12.02v2.15s-.05.02-.12.02h-.32v.34h2.8l.04-.59.04-.6h-.35v.07h0ZM34.8,13.2c-.08.07-.25.11-.5.11h-.18c-.07,0-.11-.02-.11-.02,0,0-.02-.02-.02-.09v-.88h.26c.27,0,.45.05.54.11.09.07.14.18.14.38s-.05.32-.13.38h0ZM33.99,11.2c0-.07.02-.09.02-.09,0,0,.04-.02.11-.02h.08c.24,0,.39.04.45.09s.11.16.11.35-.05.3-.11.35-.22.1-.45.09h-.21v-.78h0ZM35.34,12.22c-.08-.04-.16-.07-.26-.1.05-.02.09-.04.13-.06.25-.13.4-.34.4-.6,0-.22-.1-.41-.29-.52-.19-.12-.44-.17-.76-.17h-1.84v.34h.32c.07,0,.12.01.12.02v2.14s-.05.02-.12.02h-.32v.34h1.88c.35,0,.63-.07.85-.21.22-.14.34-.35.33-.59,0-.26-.16-.47-.44-.6h0ZM29.38,11.11h.32c.07,0,.12.01.12.02,0,0,.01,0,.01.05v2.05s0,.04-.01.04c0,0-.05.02-.12.02h-.32v.34h1.72v-.34h-.32c-.07,0-.11-.01-.12-.02,0,0-.01,0-.01-.05v-2.05s0-.04.01-.05c0,0,.05-.02.12-.02h.32v-.34h-1.72v.34h0ZM26.76,13.2c-.08.07-.25.11-.5.11h-.18c-.07,0-.11-.02-.11-.02,0,0-.02-.02-.02-.09v-.88h.26c.27,0,.45.05.54.11.09.07.14.18.14.38s-.05.32-.13.38h0ZM25.97,11.11s.04-.02.11-.02h.08c.24,0,.39.04.45.09.06.05.11.16.11.35s-.05.3-.11.35c-.06.05-.22.1-.45.09h-.21v-.78c0-.07.02-.09.02-.09h0ZM27.31,12.22c-.08-.04-.16-.07-.26-.1.05-.02.09-.04.13-.06.25-.13.4-.34.4-.6,0-.22-.1-.41-.29-.52-.19-.12-.44-.17-.76-.17h-1.84v.34h.32c.07,0,.12.01.12.02,0,0,.01,0,.01.05v2.05s0,.04-.01.04c0,0-.05.02-.12.02h-.32v.34h1.88c.35,0,.63-.07.85-.21.22-.14.34-.35.33-.59,0-.26-.16-.47-.44-.6h0ZM84.74,6.79l-.02.15c-.12.81-.37,1.35-.71,1.65-.33.3-.88.47-1.66.46h-.79c-.2,0-.32-.04-.34-.06-.02-.01-.06-.1-.06-.28v-2.29h.08c.48,0,.8.11.98.29.19.18.33.53.4,1.05l.02.15h.79v-3.65h-.79l-.02.15c-.06.48-.2.8-.38.96s-.51.27-.99.27h-.08v-2.11c0-.18.04-.26.06-.28s.13-.07.33-.06h.85c.68,0,1.16.15,1.45.41.29.26.51.75.63,1.48l.02.15h.82l-.1-1.42-.09-1.4h-10.72v.78h.17c.42.02.7.12.88.28.17.16.27.41.27.79v2.82l-4.01-4.66h-2.7v.79h.6c.12,0,.22.02.31.07.08.04.18.12.29.24v4.5c0,.38-.1.63-.27.79s-.46.26-.88.28h-.17v.79h3.51v-.78h-.17c-.42-.02-.7-.12-.88-.28-.17-.16-.27-.41-.27-.79v-3.48l4.57,5.33h.93v-5.64c0-.39.09-.64.23-.8.14-.15.37-.25.72-.26h1.17c.19,0,.32.03.35.06.03.02.05.05.06.17v5.42c0,.12-.03.15-.06.17-.03.03-.15.06-.35.06h-.79v.79h7.44l.1-1.51.09-1.53h-.82v-.02h0ZM68.31,8.32l.09-1.53h-.82l-.02.15c-.12.81-.37,1.35-.71,1.65-.33.3-.88.47-1.66.46h-.79c-.2,0-.32-.04-.33-.06-.02-.01-.07-.1-.06-.28v-2.29h.08c.48,0,.79.11.98.29s.33.53.4,1.05l.02.15h.79v-3.65h-.79l-.02.15c-.06.48-.2.8-.38.96s-.51.27-.99.27h-.08v-2.11c0-.18.04-.26.06-.28s.13-.07.33-.06h.85c.68,0,1.16.15,1.45.41.29.26.51.75.63,1.48l.02.15h.82l-.1-1.42-.09-1.4h-7.2v.79h.79c.19,0,.32.03.35.06.03.02.05.05.06.17v5.42c0,.12-.03.15-.05.17-.03.03-.15.06-.35.06h-.79v.79h7.44l.1-1.51h0s-.03-.04-.03-.04ZM57.11,5.3c-.28.21-.71.32-1.3.32h-.33v-2.12c0-.18.04-.26.06-.28s.13-.07.34-.06h.21c.5,0,.85.11,1.08.32.23.2.35.49.35.92s-.14.69-.41.9h0ZM46.19,6.69l.99-2.15.95,2.15h-1.94ZM30.84,6.69l.99-2.15.95,2.15h-1.94ZM60.46,8.04v-.17h-.83v.17c0,.29-.04.48-.09.57-.05.08-.08.1-.19.11h-.06v-.02l-.26-.73c-.22-.69-.53-1.22-.94-1.58-.12-.1-.26-.19-.4-.27.43-.08.8-.21,1.11-.4.53-.33.81-.83.81-1.42s-.28-1.09-.8-1.42-1.23-.49-2.1-.49h-4.43v.79h.79c.19,0,.32.03.35.06.03.02.05.05.06.17v5.42c0,.12-.03.15-.05.16-.04.03-.16.06-.35.06h-1.48c-.11,0-.19-.02-.24-.06-.05-.03-.11-.11-.18-.24l-3-6.51h-.84l-2.84,6.15c-.11.23-.24.4-.37.5,0,.02-.24.09-.45.11-.11.02-.23.03-.33.04l.05-.72.09-1.53h-.82l-.02.15c-.12.81-.36,1.36-.66,1.65-.3.3-.78.46-1.47.46h-1.43l4.32-5.98v-.67h-6.18l-.1,1.4-.09,1.42h.82l.02-.15c.1-.6.29-1.06.58-1.4.29-.33.61-.49,1.01-.49h1.59l-4.24,5.87h-.57c-.11,0-.19-.02-.24-.06-.05-.03-.11-.11-.18-.24l-3-6.51h-.84l-2.84,6.15h0c-.11.23-.24.4-.37.5-.14.11-.29.16-.47.16h-.33v.79h3.29v-.79h-.48c-.36,0-.53-.1-.61-.24-.04-.06-.05-.14-.05-.23,0-.13.04-.3.14-.51l.23-.5h2.74l.59,1.33.02.07h-.02c-.06.04-.28.08-.62.08h-.41v.79h13.81v-.79h-.48c-.36,0-.53-.1-.61-.24-.04-.06-.05-.14-.05-.23,0-.13.04-.3.14-.51l.23-.5h2.74l.59,1.33.02.07h-.02c-.06.04-.28.08-.62.08h-.41v.79h8.36v-.79h-.68c-.16,0-.25-.03-.26-.05,0,0-.04-.05-.04-.18v-2.43h.24c.39,0,.65.12.83.34.19.22.36.67.48,1.33.06.33.14.62.23.87l.15.35c.09.21.28.37.52.48s.51.17.81.17h0c.51,0,.95-.17,1.25-.51.31-.34.46-.81.46-1.37h-.03ZM21.9,8.77c-.17-.16-.27-.41-.27-.79v-3.48l4.57,5.33h.93v-5.59c0-.39.09-.64.23-.8.14-.15.37-.25.72-.26h.17v-.79h-3.31v.78h.17c.42.02.7.12.88.28.17.16.27.41.27.79v2.82l-4.01-4.66h-2.7v.79h.6c.12,0,.22.02.31.07.08.04.18.12.29.24v4.5c0,.38-.1.63-.27.79s-.45.26-.88.28h-.17v.79h3.51v-.78h-.17c-.42-.02-.7-.12-.88-.28h0v-.03h.01Z"/>
</svg>